function data()
return { 
		subMeshes = {
			{ 
				indices = { 
					normal = { 
						count = 102732,
						offset = 632744,
					},
					position = { 
						count = 102732,
						offset = 427280,
					},
					tangent = { 
						count = 102732,
						offset = 735476,
					},
					uv0 = { 
						count = 102732,
						offset = 530012,
					},
				},
			},
		},
		vertexAttr = { 
			normal = { 
				count = 36228,
				numComp = 3,
				offset = 187420,
			},
			position = { 
				count = 92124,
				numComp = 3,
				offset = 0,
			},
			tangent = { 
				count = 203632,
				numComp = 4,
				offset = 223648,
			},
			uv0 = { 
				count = 95296,
				numComp = 2,
				offset = 92124,
			},
		},
	}
end